# xmcd
#
# Track frame offsets: 
#        150
#        14200
#        35837
#        47731
#        70512
#        84596
#        103506
#        112617
#        132856
#        147502
#        167423
#        188671
#        206978
#
# Disc length: 3259 seconds
#
# Revision: 0
# Processed by: cddbd v1.5.2PL0 Copyright (c) Steve Scherf et al.
# Submitted via: ExactAudioCopy v0.95b4
#
DISCID=b30cb90d
DTITLE=Cross Canadian Ragweed - Mission California
DYEAR=2007
DGENRE=Country
TTITLE0=Record Exec
TTITLE1=Dead Man
TTITLE2=Deal
TTITLE3=Lawrence
TTITLE4=In Oklahoma
TTITLE5=Cry Lonely
TTITLE6=Smoke Another
TTITLE7=Soul Agent
TTITLE8=Walls To Climb
TTITLE9=The Years
TTITLE10=Jenny
TTITLE11=I Believe You
TTITLE12=NYCG
EXTD=
EXTT0=
EXTT1=
EXTT2=
EXTT3=
EXTT4=
EXTT5=
EXTT6=
EXTT7=
EXTT8=
EXTT9=
EXTT10=
EXTT11=
EXTT12=
PLAYORDER=
